<?xml version="1.0" encoding="utf-8"?>
<!-- Generator: Adobe Illustrator 24.2.3, SVG Export Plug-In . SVG Version: 6.00 Build 0)  -->
<svg version="1.1" id="Capa_1" xmlns="http://www.w3.org/2000/svg" xmlns:xlink="http://www.w3.org/1999/xlink" x="0px" y="0px"
	 viewBox="0 0 116.4 19.8" style="enable-background:new 0 0 116.4 19.8;" xml:space="preserve">
<style type="text/css">
	.st0{fill:#9D9170;}
	.st1{fill:#1D1D1B;}
</style>
<g>
	<path class="st0" d="M55.4,9.3c1.4,0,2.3-0.8,2.3-2.1c0-1.3-0.9-2.1-2.3-2.1h-2.1v4.2H55.4z M53.2,12.5v5.9h-3.6V2h6.1
		c3.3,0,5.6,2.2,5.6,5.2c0,3.1-2.3,5.2-5.6,5.2H53.2z"/>
	<path class="st0" d="M67,11.7h4l-2-5.6L67,11.7z M72.1,15h-6.3l-1.2,3.3h-3.8L67,2h4.2l6.1,16.3h-4L72.1,15z"/>
	<path class="st0" d="M77.4,10.2c0-5.1,3.9-8.5,8.4-8.5c4.9,0,7.1,3.1,7.6,5.5L90,8.3c-0.3-1.1-1.3-3-4.2-3c-2.2,0-4.6,1.6-4.6,5
		c0,3.1,2.3,4.8,4.7,4.8c2.8,0,4-1.9,4.3-3.1l3.5,1c-0.5,2.3-2.7,5.7-7.7,5.7C81.2,18.7,77.4,15.3,77.4,10.2"/>
	<polygon class="st0" points="101.6,11.9 99.7,14 99.7,18.3 96.1,18.3 96.1,2 99.7,2 99.7,8.9 105.7,2 110.5,2 104.1,9.1 
		110.5,18.3 106,18.3 	"/>
	<path class="st0" d="M113.7,3.5c0.2,0,0.3-0.1,0.3-0.3c0-0.2-0.1-0.3-0.3-0.3h-0.2v0.5H113.7z M113.6,4h-0.2v0.8h-0.6V2.5h0.9
		c0.4,0,0.8,0.3,0.8,0.7c0,0.3-0.2,0.5-0.4,0.6l0.4,0.9H114L113.6,4z M113.6,5.2c0.9,0,1.6-0.7,1.6-1.6c0-0.9-0.7-1.6-1.6-1.6
		c-0.9,0-1.6,0.7-1.6,1.6C112.1,4.5,112.7,5.2,113.6,5.2 M113.6,1.5c1.1,0,2.1,0.9,2.1,2.1c0,1.1-0.9,2.1-2.1,2.1
		c-1.1,0-2.1-0.9-2.1-2.1C111.6,2.5,112.5,1.5,113.6,1.5"/>
	<rect x="34" y="2" class="st1" width="12.5" height="3.4"/>
	<rect x="34" y="14.9" class="st1" width="12.5" height="3.4"/>
	<path class="st1" d="M40.3,10.8c0.3,0,0.4-0.2,0.4-0.5c0.1-1,0.7-1.6,1.6-1.6c0,0,0.1,0,0.1,0c0.8,0.1,1.4,0.7,1.5,1.6
		c0,0.3,0.2,0.5,0.5,0.5c0.2,0,0.4-0.2,0.5-0.5c0.1-0.9,0.7-1.4,1.6-1.6V10c-0.3,0.1-0.4,0.3-0.4,0.5C46,11.4,45.3,12,44.5,12
		c-0.9,0-1.5-0.7-1.7-1.6c0-0.3-0.2-0.5-0.5-0.5c-0.2,0-0.4,0.1-0.5,0.5c-0.1,0.9-0.7,1.6-1.6,1.6h0c-0.9,0-1.5-0.7-1.6-1.6
		c0-0.4-0.2-0.5-0.5-0.5c-0.3,0-0.4,0.2-0.5,0.5C37.7,11.2,37,12,36.2,12c-0.9,0-1.5-0.6-1.6-1.5c0-0.2-0.1-0.4-0.4-0.5V8.7
		c0.9,0.1,1.5,0.7,1.6,1.6c0,0.3,0.2,0.5,0.5,0.5c0.2,0,0.4-0.2,0.5-0.5c0.1-0.9,0.7-1.5,1.5-1.6c0,0,0.1,0,0.1,0
		c0.8,0,1.4,0.6,1.6,1.6C39.9,10.6,40,10.8,40.3,10.8"/>
	<path class="st0" d="M31.3,18.3V2h-3.7v6.4h-6.5V2h-3.6v16.3h3.6v-6.5h6.5v6.5H31.3z M15,5.5V2H1.4v3.5h5v12.8H10V5.5H15z"/>
</g>
</svg>
